<?xml version="1.0" encoding="UTF-8"?>
<svg id="Layer_2" data-name="Layer 2" xmlns="http://www.w3.org/2000/svg" viewBox="0 0 348.72 348.72">
  <defs>
    <style>
      .cls-1 {
        fill: #fc4c02;
      }

      .cls-2 {
        fill: #170302;
      }

      .cls-3 {
        fill: #f5f3f0;
      }
    </style>
  </defs>
  <g id="Layer_1-2" data-name="Layer 1">
    <g>
      <path class="cls-1" d="M348.72,174.36c0,96.3-78.06,174.36-174.36,174.36S0,270.66,0,174.36,78.06,0,174.36,0s174.36,78.06,174.36,174.36ZM297.32,168.18c3.75-21.47,6.8-42.19,8.64-63.58.25-2.9-.94-5.68-2.48-7.06-1.88-1.69-4.6-2.21-7.5-1.85-21.08,2.64-41.45,6.61-62.23,10.51-2.96.55-4.57,3.27-5.15,5.33-.77,2.71.12,5.13,2.2,7.23l12.21,12.37c-4.4,5.59-8.85,9.91-14.39,15.34-23.59-23.01-56.9-24.98-86.46-11.42l-.49-48.46c-.08-8.45-2.6-16.44-8.05-22.69-13.92-12.97-42.38-6.91-42.49,3.67l-.43,39.62-.44,81.24c-.08,14.32,1.56,27.55,4.56,41.24,5.8,26.46,22.75,48.06,48.09,57.96,29.5,11.53,62.97,6.55,86.78-14.38,26.04-22.89,34.89-58.91,23.77-91.42l19.46-22.69,13.45,13.04c1.65,1.6,4.65,2.03,6.75,1.19,1.48-.59,3.71-2.19,4.23-5.2Z"/>
      <g>
        <path class="cls-2" d="M297.32,168.18c-.52,3-2.75,4.61-4.23,5.2-2.09.83-5.1.4-6.75-1.19l-13.45-13.04-19.46,22.69c11.12,32.51,2.28,68.53-23.77,91.42-23.81,20.93-57.28,25.92-86.78,14.38-25.34-9.91-42.28-31.5-48.09-57.96-3-13.69-4.64-26.92-4.56-41.24l.44-81.24.43-39.62c.12-10.58,28.57-16.65,42.49-3.67,5.46,6.25,7.97,14.24,8.05,22.69l.49,48.46c29.55-13.57,62.87-11.59,86.46,11.42,5.55-5.43,9.99-9.75,14.39-15.34l-12.21-12.37c-2.08-2.1-2.96-4.52-2.2-7.23.58-2.06,2.19-4.77,5.15-5.33,20.79-3.9,41.16-7.87,62.23-10.51,2.91-.36,5.62.16,7.5,1.85,1.54,1.38,2.73,4.16,2.48,7.06-1.84,21.39-4.89,42.1-8.64,63.58ZM131.87,191.96c8.92-8.28,21.5-8.1,29.75.02l13.99,13.77,46.19-50.55c-22.38-23.15-58.98-23.32-83.93-3.94-1.62,1.26-3.07,1.26-4.49.41-1.03-.61-1.81-1.7-1.82-3.39l-.58-61.75c-.05-5.68-1.98-12.17-6.51-15.4-6.39-4.56-15.07-4.47-22.22-1.21l-1.09,82.27.1,40.31c.03,12.78,1.44,24.89,4.57,37.1,6.96,27.12,28.05,47.36,55.57,52.52,24.89,4.66,50.12-4.32,66.8-22.38,17.01-18.42,23.29-45.06,16.45-69.14l-51.53,57.79c-8.57,9.61-22.7,10.91-32.25,2.09-11.09-10.25-21.22-21.14-31.11-32.52-6.8-7.81-5.28-19.15,2.13-26.04ZM158.87,233.09c3.18,3.49,5.6,6.9,9.05,9.53,5.34,4.08,12.36,3.78,16.93-1.42l20.96-23.88,27.49-30.53,35.33-38.59c1.19-1.3,2.61-2.33,3.88-2.37s2.58.56,3.71,1.45l12.28,11.78,5.99-51.82c-17.54,2.32-33.82,4.39-50.49,8.44,1.73,2.61,4.16,4.33,6.66,6.17,2.94,2.75,5.84,5.37,6.69,9.6l-30.15,34.23-26.87,29.15-18.74,21.22c-2.15,2.44-3.64,4.12-7.03,3.79-2.61-.26-3.51-2.33-5.54-4.39l-16.3-16.51c-3.55-3.59-8.8-2.69-12.17-.3s-5.32,7.99-2.49,11.89c6.01,8.3,13.69,14.73,20.82,22.56Z"/>
        <path class="cls-3" d="M131.87,191.96c-7.42,6.89-8.93,18.22-2.13,26.04,9.9,11.38,20.02,22.27,31.11,32.52,9.55,8.82,23.68,7.52,32.25-2.09l51.53-57.79c6.84,24.08.57,50.72-16.45,69.14-16.68,18.05-41.9,27.04-66.8,22.38-27.52-5.15-48.61-25.4-55.57-52.52-3.13-12.21-4.54-24.32-4.57-37.1l-.1-40.31,1.09-82.27c7.16-3.26,15.84-3.35,22.22,1.21,4.53,3.23,6.45,9.72,6.51,15.4l.58,61.75c.02,1.69.8,2.77,1.82,3.39,1.42.85,2.88.85,4.49-.41,24.95-19.38,61.55-19.21,83.93,3.94l-46.19,50.55-13.99-13.77c-8.25-8.12-20.83-8.3-29.75-.02Z"/>
        <path class="cls-1" d="M158.87,233.09c-7.13-7.83-14.81-14.27-20.82-22.56-2.83-3.91-1.02-9.4,2.49-11.89s8.62-3.29,12.17.3l16.3,16.51c2.03,2.06,2.93,4.13,5.54,4.39,3.39.33,4.88-1.35,7.03-3.79l18.74-21.22,26.87-29.15,30.15-34.23c-.85-4.22-3.75-6.84-6.69-9.6-2.5-1.83-4.93-3.56-6.66-6.17,16.67-4.05,32.95-6.12,50.49-8.44l-5.99,51.82-12.28-11.78c-1.13-.89-2.45-1.49-3.71-1.45s-2.69,1.07-3.88,2.37l-35.33,38.59-27.49,30.53-20.96,23.88c-4.56,5.2-11.58,5.5-16.93,1.42-3.45-2.63-5.87-6.04-9.05-9.53Z"/>
      </g>
    </g>
  </g>
</svg>